<?xml version="1.0" encoding="utf-8" standalone="no"?>
<!DOCTYPE svg PUBLIC "-//W3C//DTD SVG 1.1//EN"
  "http://www.w3.org/Graphics/SVG/1.1/DTD/svg11.dtd">
<svg xmlns:xlink="http://www.w3.org/1999/xlink" width="558.625pt" height="544.913125pt" viewBox="0 0 558.625 544.913125" xmlns="http://www.w3.org/2000/svg" version="1.1">
 <metadata>
  <rdf:RDF xmlns:dc="http://purl.org/dc/elements/1.1/" xmlns:cc="http://creativecommons.org/ns#" xmlns:rdf="http://www.w3.org/1999/02/22-rdf-syntax-ns#">
   <cc:Work>
    <dc:type rdf:resource="http://purl.org/dc/dcmitype/StillImage"/>
    <dc:date>2026-04-04T13:09:20.931758</dc:date>
    <dc:format>image/svg+xml</dc:format>
    <dc:creator>
     <cc:Agent>
      <dc:title>Matplotlib v3.10.7, https://matplotlib.org/</dc:title>
     </cc:Agent>
    </dc:creator>
   </cc:Work>
  </rdf:RDF>
 </metadata>
 <defs>
  <style type="text/css">*{stroke-linejoin: round; stroke-linecap: butt}</style>
 </defs>
 <g id="figure_1">
  <g id="patch_1">
   <path d="M 0 544.913125 
L 558.625 544.913125 
L 558.625 0 
L 0 0 
z
" style="fill: #ffffff"/>
  </g>
  <g id="axes_1">
   <g id="patch_2">
    <path d="M 53.415 505.21 
L 557.185 505.21 
L 557.185 1.44 
L 53.415 1.44 
z
" style="fill: #ffffff"/>
   </g>
   <g id="matplotlib.axis_1">
    <g id="xtick_1">
     <g id="line2d_1">
      <path d="M 103.792 505.21 
L 103.792 1.44 
" clip-path="url(#pe82d1a049f)" style="fill: none; stroke: #b0b0b0; stroke-opacity: 0.3; stroke-width: 0.8; stroke-linecap: square"/>
     </g>
     <g id="line2d_2">
      <defs>
       <path id="me5d47236b4" d="M 0 0 
L 0 3.5 
" style="stroke: #000000; stroke-width: 0.8"/>
      </defs>
      <g>
       <use xlink:href="#me5d47236b4" x="103.792" y="505.21" style="stroke: #000000; stroke-width: 0.8"/>
      </g>
     </g>
     <g id="text_1">
      <!-- −20 -->
      <g transform="translate(91.129187 523.428125) scale(0.12 -0.12)">
       <defs>
        <path id="DejaVuSans-2212" d="M 678 2272 
L 4684 2272 
L 4684 1741 
L 678 1741 
L 678 2272 
z
" transform="scale(0.015625)"/>
        <path id="DejaVuSans-32" d="M 1228 531 
L 3431 531 
L 3431 0 
L 469 0 
L 469 531 
Q 828 903 1448 1529 
Q 2069 2156 2228 2338 
Q 2531 2678 2651 2914 
Q 2772 3150 2772 3378 
Q 2772 3750 2511 3984 
Q 2250 4219 1831 4219 
Q 1534 4219 1204 4116 
Q 875 4013 500 3803 
L 500 4441 
Q 881 4594 1212 4672 
Q 1544 4750 1819 4750 
Q 2544 4750 2975 4387 
Q 3406 4025 3406 3419 
Q 3406 3131 3298 2873 
Q 3191 2616 2906 2266 
Q 2828 2175 2409 1742 
Q 1991 1309 1228 531 
z
" transform="scale(0.015625)"/>
        <path id="DejaVuSans-30" d="M 2034 4250 
Q 1547 4250 1301 3770 
Q 1056 3291 1056 2328 
Q 1056 1369 1301 889 
Q 1547 409 2034 409 
Q 2525 409 2770 889 
Q 3016 1369 3016 2328 
Q 3016 3291 2770 3770 
Q 2525 4250 2034 4250 
z
M 2034 4750 
Q 2819 4750 3233 4129 
Q 3647 3509 3647 2328 
Q 3647 1150 3233 529 
Q 2819 -91 2034 -91 
Q 1250 -91 836 529 
Q 422 1150 422 2328 
Q 422 3509 836 4129 
Q 1250 4750 2034 4750 
z
" transform="scale(0.015625)"/>
       </defs>
       <use xlink:href="#DejaVuSans-2212"/>
       <use xlink:href="#DejaVuSans-32" transform="translate(83.789062 0)"/>
       <use xlink:href="#DejaVuSans-30" transform="translate(147.412109 0)"/>
      </g>
     </g>
    </g>
    <g id="xtick_2">
     <g id="line2d_3">
      <path d="M 204.546 505.21 
L 204.546 1.44 
" clip-path="url(#pe82d1a049f)" style="fill: none; stroke: #b0b0b0; stroke-opacity: 0.3; stroke-width: 0.8; stroke-linecap: square"/>
     </g>
     <g id="line2d_4">
      <g>
       <use xlink:href="#me5d47236b4" x="204.546" y="505.21" style="stroke: #000000; stroke-width: 0.8"/>
      </g>
     </g>
     <g id="text_2">
      <!-- −10 -->
      <g transform="translate(191.883187 523.428125) scale(0.12 -0.12)">
       <defs>
        <path id="DejaVuSans-31" d="M 794 531 
L 1825 531 
L 1825 4091 
L 703 3866 
L 703 4441 
L 1819 4666 
L 2450 4666 
L 2450 531 
L 3481 531 
L 3481 0 
L 794 0 
L 794 531 
z
" transform="scale(0.015625)"/>
       </defs>
       <use xlink:href="#DejaVuSans-2212"/>
       <use xlink:href="#DejaVuSans-31" transform="translate(83.789062 0)"/>
       <use xlink:href="#DejaVuSans-30" transform="translate(147.412109 0)"/>
      </g>
     </g>
    </g>
    <g id="xtick_3">
     <g id="line2d_5">
      <path d="M 305.3 505.21 
L 305.3 1.44 
" clip-path="url(#pe82d1a049f)" style="fill: none; stroke: #b0b0b0; stroke-opacity: 0.3; stroke-width: 0.8; stroke-linecap: square"/>
     </g>
     <g id="line2d_6">
      <g>
       <use xlink:href="#me5d47236b4" x="305.3" y="505.21" style="stroke: #000000; stroke-width: 0.8"/>
      </g>
     </g>
     <g id="text_3">
      <!-- 0 -->
      <g transform="translate(301.4825 523.428125) scale(0.12 -0.12)">
       <use xlink:href="#DejaVuSans-30"/>
      </g>
     </g>
    </g>
    <g id="xtick_4">
     <g id="line2d_7">
      <path d="M 406.054 505.21 
L 406.054 1.44 
" clip-path="url(#pe82d1a049f)" style="fill: none; stroke: #b0b0b0; stroke-opacity: 0.3; stroke-width: 0.8; stroke-linecap: square"/>
     </g>
     <g id="line2d_8">
      <g>
       <use xlink:href="#me5d47236b4" x="406.054" y="505.21" style="stroke: #000000; stroke-width: 0.8"/>
      </g>
     </g>
     <g id="text_4">
      <!-- 10 -->
      <g transform="translate(398.419 523.428125) scale(0.12 -0.12)">
       <use xlink:href="#DejaVuSans-31"/>
       <use xlink:href="#DejaVuSans-30" transform="translate(63.623047 0)"/>
      </g>
     </g>
    </g>
    <g id="xtick_5">
     <g id="line2d_9">
      <path d="M 506.808 505.21 
L 506.808 1.44 
" clip-path="url(#pe82d1a049f)" style="fill: none; stroke: #b0b0b0; stroke-opacity: 0.3; stroke-width: 0.8; stroke-linecap: square"/>
     </g>
     <g id="line2d_10">
      <g>
       <use xlink:href="#me5d47236b4" x="506.808" y="505.21" style="stroke: #000000; stroke-width: 0.8"/>
      </g>
     </g>
     <g id="text_5">
      <!-- 20 -->
      <g transform="translate(499.173 523.428125) scale(0.12 -0.12)">
       <use xlink:href="#DejaVuSans-32"/>
       <use xlink:href="#DejaVuSans-30" transform="translate(63.623047 0)"/>
      </g>
     </g>
    </g>
    <g id="text_6">
     <!-- $x$ -->
     <g transform="translate(301.1 540.561562) scale(0.14 -0.14)">
      <defs>
       <path id="DejaVuSans-Oblique-78" d="M 3841 3500 
L 2234 1784 
L 3219 0 
L 2559 0 
L 1819 1388 
L 531 0 
L -166 0 
L 1556 1844 
L 641 3500 
L 1300 3500 
L 1972 2234 
L 3144 3500 
L 3841 3500 
z
" transform="scale(0.015625)"/>
      </defs>
      <use xlink:href="#DejaVuSans-Oblique-78" transform="translate(0 0.3125)"/>
     </g>
    </g>
   </g>
   <g id="matplotlib.axis_2">
    <g id="ytick_1">
     <g id="line2d_11">
      <path d="M 53.415 454.833 
L 557.185 454.833 
" clip-path="url(#pe82d1a049f)" style="fill: none; stroke: #b0b0b0; stroke-opacity: 0.3; stroke-width: 0.8; stroke-linecap: square"/>
     </g>
     <g id="line2d_12">
      <defs>
       <path id="mf751f1f751" d="M 0 0 
L -3.5 0 
" style="stroke: #000000; stroke-width: 0.8"/>
      </defs>
      <g>
       <use xlink:href="#mf751f1f751" x="53.415" y="454.833" style="stroke: #000000; stroke-width: 0.8"/>
      </g>
     </g>
     <g id="text_7">
      <!-- −20 -->
      <g transform="translate(18.989375 459.392062) scale(0.12 -0.12)">
       <use xlink:href="#DejaVuSans-2212"/>
       <use xlink:href="#DejaVuSans-32" transform="translate(83.789062 0)"/>
       <use xlink:href="#DejaVuSans-30" transform="translate(147.412109 0)"/>
      </g>
     </g>
    </g>
    <g id="ytick_2">
     <g id="line2d_13">
      <path d="M 53.415 354.079 
L 557.185 354.079 
" clip-path="url(#pe82d1a049f)" style="fill: none; stroke: #b0b0b0; stroke-opacity: 0.3; stroke-width: 0.8; stroke-linecap: square"/>
     </g>
     <g id="line2d_14">
      <g>
       <use xlink:href="#mf751f1f751" x="53.415" y="354.079" style="stroke: #000000; stroke-width: 0.8"/>
      </g>
     </g>
     <g id="text_8">
      <!-- −10 -->
      <g transform="translate(18.989375 358.638062) scale(0.12 -0.12)">
       <use xlink:href="#DejaVuSans-2212"/>
       <use xlink:href="#DejaVuSans-31" transform="translate(83.789062 0)"/>
       <use xlink:href="#DejaVuSans-30" transform="translate(147.412109 0)"/>
      </g>
     </g>
    </g>
    <g id="ytick_3">
     <g id="line2d_15">
      <path d="M 53.415 253.325 
L 557.185 253.325 
" clip-path="url(#pe82d1a049f)" style="fill: none; stroke: #b0b0b0; stroke-opacity: 0.3; stroke-width: 0.8; stroke-linecap: square"/>
     </g>
     <g id="line2d_16">
      <g>
       <use xlink:href="#mf751f1f751" x="53.415" y="253.325" style="stroke: #000000; stroke-width: 0.8"/>
      </g>
     </g>
     <g id="text_9">
      <!-- 0 -->
      <g transform="translate(36.68 257.884062) scale(0.12 -0.12)">
       <use xlink:href="#DejaVuSans-30"/>
      </g>
     </g>
    </g>
    <g id="ytick_4">
     <g id="line2d_17">
      <path d="M 53.415 152.571 
L 557.185 152.571 
" clip-path="url(#pe82d1a049f)" style="fill: none; stroke: #b0b0b0; stroke-opacity: 0.3; stroke-width: 0.8; stroke-linecap: square"/>
     </g>
     <g id="line2d_18">
      <g>
       <use xlink:href="#mf751f1f751" x="53.415" y="152.571" style="stroke: #000000; stroke-width: 0.8"/>
      </g>
     </g>
     <g id="text_10">
      <!-- 10 -->
      <g transform="translate(29.045 157.130062) scale(0.12 -0.12)">
       <use xlink:href="#DejaVuSans-31"/>
       <use xlink:href="#DejaVuSans-30" transform="translate(63.623047 0)"/>
      </g>
     </g>
    </g>
    <g id="ytick_5">
     <g id="line2d_19">
      <path d="M 53.415 51.817 
L 557.185 51.817 
" clip-path="url(#pe82d1a049f)" style="fill: none; stroke: #b0b0b0; stroke-opacity: 0.3; stroke-width: 0.8; stroke-linecap: square"/>
     </g>
     <g id="line2d_20">
      <g>
       <use xlink:href="#mf751f1f751" x="53.415" y="51.817" style="stroke: #000000; stroke-width: 0.8"/>
      </g>
     </g>
     <g id="text_11">
      <!-- 20 -->
      <g transform="translate(29.045 56.376062) scale(0.12 -0.12)">
       <use xlink:href="#DejaVuSans-32"/>
       <use xlink:href="#DejaVuSans-30" transform="translate(63.623047 0)"/>
      </g>
     </g>
    </g>
    <g id="text_12">
     <!-- $y$ -->
     <g transform="translate(12.049375 257.525) rotate(-90) scale(0.14 -0.14)">
      <defs>
       <path id="DejaVuSans-Oblique-79" d="M 1588 -325 
Q 1188 -997 936 -1164 
Q 684 -1331 294 -1331 
L -159 -1331 
L -63 -850 
L 269 -850 
Q 509 -850 678 -719 
Q 847 -588 1056 -206 
L 1234 128 
L 459 3500 
L 1069 3500 
L 1650 819 
L 3256 3500 
L 3859 3500 
L 1588 -325 
z
" transform="scale(0.015625)"/>
      </defs>
      <use xlink:href="#DejaVuSans-Oblique-79" transform="translate(0 0.3125)"/>
     </g>
    </g>
   </g>
   <g id="line2d_21">
    <path d="M 335.5262 253.325 
L 335.465345 251.407936 
L 335.283025 249.498591 
L 334.979973 247.604654 
L 334.557411 245.733751 
L 334.01704 243.893415 
L 333.361035 242.091056 
L 332.592038 240.333933 
L 331.713146 238.62912 
L 330.727898 236.983483 
L 329.64026 235.403646 
L 328.454613 233.895973 
L 327.17573 232.466534 
L 325.808761 231.121084 
L 324.359211 229.865042 
L 322.832916 228.703464 
L 321.236022 227.641029 
L 319.57496 226.682014 
L 317.856417 225.830281 
L 316.087314 225.08926 
L 314.274775 224.461934 
L 312.426097 223.950829 
L 310.548725 223.558004 
L 308.650218 223.28504 
L 306.738221 223.133036 
L 304.820432 223.102605 
L 302.904575 223.193868 
L 300.998363 223.406459 
L 299.109473 223.739522 
L 297.245509 224.191714 
L 295.413978 224.761216 
L 293.622255 225.445735 
L 291.877554 226.242513 
L 290.1869 227.148343 
L 288.557101 228.159577 
L 286.99472 229.272143 
L 285.506048 230.481562 
L 284.09708 231.782963 
L 282.773488 233.171107 
L 281.540602 234.640403 
L 280.403387 236.184935 
L 279.366422 237.798484 
L 278.433882 239.474554 
L 277.609523 241.206393 
L 276.896663 242.987031 
L 276.298173 244.809295 
L 275.816464 246.66585 
L 275.453475 248.549218 
L 275.210667 250.451817 
L 275.089018 252.365985 
L 275.089018 254.284015 
L 275.210667 256.198183 
L 275.453475 258.100782 
L 275.816464 259.98415 
L 276.298173 261.840705 
L 276.896663 263.662969 
L 277.609523 265.443607 
L 278.433882 267.175446 
L 279.366422 268.851516 
L 280.403387 270.465065 
L 281.540602 272.009597 
L 282.773488 273.478893 
L 284.09708 274.867037 
L 285.506048 276.168438 
L 286.99472 277.377857 
L 288.557101 278.490423 
L 290.1869 279.501657 
L 291.877554 280.407487 
L 293.622255 281.204265 
L 295.413978 281.888784 
L 297.245509 282.458286 
L 299.109473 282.910478 
L 300.998363 283.243541 
L 302.904575 283.456132 
L 304.820432 283.547395 
L 306.738221 283.516964 
L 308.650218 283.36496 
L 310.548725 283.091996 
L 312.426097 282.699171 
L 314.274775 282.188066 
L 316.087314 281.56074 
L 317.856417 280.819719 
L 319.57496 279.967986 
L 321.236022 279.008971 
L 322.832916 277.946536 
L 324.359211 276.784958 
L 325.808761 275.528916 
L 327.17573 274.183466 
L 328.454613 272.754027 
L 329.64026 271.246354 
L 330.727898 269.666517 
L 331.713146 268.02088 
L 332.592038 266.316067 
L 333.361035 264.558944 
L 334.01704 262.756585 
L 334.557411 260.916249 
L 334.979973 259.045346 
L 335.283025 257.151409 
L 335.465345 255.242064 
L 335.5262 253.325 
" clip-path="url(#pe82d1a049f)" style="fill: none; stroke: #b7d4ea; stroke-opacity: 0.8; stroke-width: 2; stroke-linecap: square"/>
   </g>
   <g id="line2d_22">
    <path d="M 335.5262 253.325 
L 290.1869 227.148343 
L 290.1869 279.501657 
L 335.5262 253.325 
" clip-path="url(#pe82d1a049f)" style="fill: none; stroke: #b7d4ea; stroke-opacity: 0.6; stroke-width: 1.5; stroke-linecap: square"/>
   </g>
   <g id="line2d_23">
    <path d="M 354.207019 253.325 
L 354.108553 250.223125 
L 353.813553 247.13374 
L 353.323205 244.069286 
L 352.639485 241.042101 
L 351.765146 238.064374 
L 350.703708 235.148097 
L 349.459445 232.305012 
L 348.037368 229.546567 
L 346.443202 226.883869 
L 344.683368 224.327641 
L 342.76495 221.888174 
L 340.695674 219.575293 
L 338.483873 217.398309 
L 336.138451 215.36599 
L 333.668854 213.486518 
L 331.085026 211.767462 
L 328.39737 210.215744 
L 325.61671 208.837611 
L 322.754241 207.638613 
L 319.82149 206.623578 
L 316.830267 205.796593 
L 313.792615 205.160989 
L 310.720766 204.719323 
L 307.62709 204.473376 
L 304.524043 204.424137 
L 301.424121 204.571805 
L 298.339806 204.915784 
L 295.283516 205.45469 
L 292.26756 206.186353 
L 289.304081 207.107827 
L 286.405012 208.215401 
L 283.582026 209.504616 
L 280.846491 210.970279 
L 278.209421 212.60649 
L 275.681436 214.406661 
L 273.272714 216.363541 
L 270.992954 218.469253 
L 268.851337 220.715316 
L 266.856486 223.092687 
L 265.016434 225.591792 
L 263.338589 228.20257 
L 261.829708 230.914507 
L 260.495866 233.716683 
L 259.342435 236.597814 
L 258.374059 239.546301 
L 257.594637 242.550269 
L 257.007308 245.597623 
L 256.614436 248.676092 
L 256.417604 251.773281 
L 256.417604 254.876719 
L 256.614436 257.973908 
L 257.007308 261.052377 
L 257.594637 264.099731 
L 258.374059 267.103699 
L 259.342435 270.052186 
L 260.495866 272.933317 
L 261.829708 275.735493 
L 263.338589 278.44743 
L 265.016434 281.058208 
L 266.856486 283.557313 
L 268.851337 285.934684 
L 270.992954 288.180747 
L 273.272714 290.286459 
L 275.681436 292.243339 
L 278.209421 294.04351 
L 280.846491 295.679721 
L 283.582026 297.145384 
L 286.405012 298.434599 
L 289.304081 299.542173 
L 292.26756 300.463647 
L 295.283516 301.19531 
L 298.339806 301.734216 
L 301.424121 302.078195 
L 304.524043 302.225863 
L 307.62709 302.176624 
L 310.720766 301.930677 
L 313.792615 301.489011 
L 316.830267 300.853407 
L 319.82149 300.026422 
L 322.754241 299.011387 
L 325.61671 297.812389 
L 328.39737 296.434256 
L 331.085026 294.882538 
L 333.668854 293.163482 
L 336.138451 291.28401 
L 338.483873 289.251691 
L 340.695674 287.074707 
L 342.76495 284.761826 
L 344.683368 282.322359 
L 346.443202 279.766131 
L 348.037368 277.103433 
L 349.459445 274.344988 
L 350.703708 271.501903 
L 351.765146 268.585626 
L 352.639485 265.607899 
L 353.323205 262.580714 
L 353.813553 259.51626 
L 354.108553 256.426875 
L 354.207019 253.325 
" clip-path="url(#pe82d1a049f)" style="fill: none; stroke: #7fb9da; stroke-opacity: 0.8; stroke-width: 2; stroke-linecap: square"/>
   </g>
   <g id="line2d_24">
    <path d="M 354.207019 253.325 
L 280.846491 210.970279 
L 280.846491 295.679721 
L 354.207019 253.325 
" clip-path="url(#pe82d1a049f)" style="fill: none; stroke: #7fb9da; stroke-opacity: 0.6; stroke-width: 1.5; stroke-linecap: square"/>
   </g>
   <g id="line2d_25">
    <path d="M 384.433219 253.325 
L 384.273898 248.306061 
L 383.796577 243.307332 
L 383.003179 238.34894 
L 381.896897 233.450851 
L 380.482186 228.632789 
L 378.764743 223.914154 
L 376.751483 219.313945 
L 374.450514 214.850687 
L 371.8711 210.542352 
L 369.023628 206.406287 
L 365.919563 202.459147 
L 362.571404 198.716826 
L 358.992634 195.194393 
L 355.197662 191.906032 
L 351.20177 188.864983 
L 347.021048 186.083492 
L 342.67233 183.572758 
L 338.173127 181.342892 
L 333.541556 179.402873 
L 328.796265 177.760512 
L 323.956363 176.422422 
L 319.041339 175.393992 
L 314.070984 174.679363 
L 309.06531 174.281412 
L 304.044475 174.201742 
L 299.028696 174.440673 
L 294.038169 174.997243 
L 289.092989 175.869212 
L 284.213069 177.053067 
L 279.418059 178.544043 
L 274.727267 180.336136 
L 270.15958 182.422128 
L 265.733391 184.793622 
L 261.466522 187.441067 
L 257.376156 190.353804 
L 253.478762 193.520103 
L 249.790034 196.927216 
L 246.324825 200.561423 
L 243.097088 204.40809 
L 240.119821 208.451728 
L 237.405011 212.676055 
L 234.96359 217.06406 
L 232.805389 221.598076 
L 230.939098 226.259845 
L 229.372232 231.030596 
L 228.111101 235.891118 
L 227.160782 240.821841 
L 226.525102 245.802909 
L 226.206621 250.814266 
L 226.206621 255.835734 
L 226.525102 260.847091 
L 227.160782 265.828159 
L 228.111101 270.758882 
L 229.372232 275.619404 
L 230.939098 280.390155 
L 232.805389 285.051924 
L 234.96359 289.58594 
L 237.405011 293.973945 
L 240.119821 298.198272 
L 243.097088 302.24191 
L 246.324825 306.088577 
L 249.790034 309.722784 
L 253.478762 313.129897 
L 257.376156 316.296196 
L 261.466522 319.208933 
L 265.733391 321.856378 
L 270.15958 324.227872 
L 274.727267 326.313864 
L 279.418059 328.105957 
L 284.213069 329.596933 
L 289.092989 330.780788 
L 294.038169 331.652757 
L 299.028696 332.209327 
L 304.044475 332.448258 
L 309.06531 332.368588 
L 314.070984 331.970637 
L 319.041339 331.256008 
L 323.956363 330.227578 
L 328.796265 328.889488 
L 333.541556 327.247127 
L 338.173127 325.307108 
L 342.67233 323.077242 
L 347.021048 320.566508 
L 351.20177 317.785017 
L 355.197662 314.743968 
L 358.992634 311.455607 
L 362.571404 307.933174 
L 365.919563 304.190853 
L 369.023628 300.243713 
L 371.8711 296.107648 
L 374.450514 291.799313 
L 376.751483 287.336055 
L 378.764743 282.735846 
L 380.482186 278.017211 
L 381.896897 273.199149 
L 383.003179 268.30106 
L 383.796577 263.342668 
L 384.273898 258.343939 
L 384.433219 253.325 
" clip-path="url(#pe82d1a049f)" style="fill: none; stroke: #4a98c9; stroke-opacity: 0.8; stroke-width: 2; stroke-linecap: square"/>
   </g>
   <g id="line2d_26">
    <path d="M 384.433219 253.325 
L 265.733391 184.793622 
L 265.733391 321.856378 
L 384.433219 253.325 
" clip-path="url(#pe82d1a049f)" style="fill: none; stroke: #4a98c9; stroke-opacity: 0.6; stroke-width: 1.5; stroke-linecap: square"/>
   </g>
   <g id="line2d_27">
    <path d="M 433.340238 253.325 
L 433.082451 245.204186 
L 432.31013 237.116072 
L 431.026384 229.093226 
L 429.236382 221.167952 
L 426.947332 213.372163 
L 424.168451 205.737251 
L 420.910929 198.293957 
L 417.187882 191.072254 
L 413.014302 184.101221 
L 408.406995 177.408928 
L 403.384513 171.022322 
L 397.967078 164.967119 
L 392.176506 159.267703 
L 386.036114 153.947022 
L 379.570625 149.026501 
L 372.806074 144.525954 
L 365.769701 140.463502 
L 358.489837 136.855503 
L 350.995797 133.716486 
L 343.317755 131.05909 
L 335.48663 128.894016 
L 327.533954 127.229981 
L 319.491749 126.073687 
L 311.3924 125.429788 
L 303.268518 125.300879 
L 295.152817 125.687477 
L 287.077974 126.588027 
L 279.076505 127.998902 
L 271.18063 129.914421 
L 263.42214 132.32687 
L 255.832278 135.226537 
L 248.441605 138.601744 
L 241.279881 142.438901 
L 234.375943 146.722558 
L 227.757592 151.435465 
L 221.451476 156.558645 
L 215.482988 162.071469 
L 209.876163 167.951739 
L 204.653575 174.175776 
L 199.836255 180.71852 
L 195.4436 187.553625 
L 191.493298 194.653567 
L 188.001255 201.989759 
L 184.981533 209.532659 
L 182.446291 217.251896 
L 180.405738 225.116387 
L 178.86809 233.094464 
L 177.839538 241.154002 
L 177.324225 249.262548 
L 177.324225 257.387452 
L 177.839538 265.495998 
L 178.86809 273.555536 
L 180.405738 281.533613 
L 182.446291 289.398104 
L 184.981533 297.117341 
L 188.001255 304.660241 
L 191.493298 311.996433 
L 195.4436 319.096375 
L 199.836255 325.93148 
L 204.653575 332.474224 
L 209.876163 338.698261 
L 215.482988 344.578531 
L 221.451476 350.091355 
L 227.757592 355.214535 
L 234.375943 359.927442 
L 241.279881 364.211099 
L 248.441605 368.048256 
L 255.832278 371.423463 
L 263.42214 374.32313 
L 271.18063 376.735579 
L 279.076505 378.651098 
L 287.077974 380.061973 
L 295.152817 380.962523 
L 303.268518 381.349121 
L 311.3924 381.220212 
L 319.491749 380.576313 
L 327.533954 379.420019 
L 335.48663 377.755984 
L 343.317755 375.59091 
L 350.995797 372.933514 
L 358.489837 369.794497 
L 365.769701 366.186498 
L 372.806074 362.124046 
L 379.570625 357.623499 
L 386.036114 352.702978 
L 392.176506 347.382297 
L 397.967078 341.682881 
L 403.384513 335.627678 
L 408.406995 329.241072 
L 413.014302 322.548779 
L 417.187882 315.577746 
L 420.910929 308.356043 
L 424.168451 300.912749 
L 426.947332 293.277837 
L 429.236382 285.482048 
L 431.026384 277.556774 
L 432.31013 269.533928 
L 433.082451 261.445814 
L 433.340238 253.325 
" clip-path="url(#pe82d1a049f)" style="fill: none; stroke: #2070b4; stroke-opacity: 0.8; stroke-width: 2; stroke-linecap: square"/>
   </g>
   <g id="line2d_28">
    <path d="M 433.340238 253.325 
L 241.279881 142.438901 
L 241.279881 364.211099 
L 433.340238 253.325 
" clip-path="url(#pe82d1a049f)" style="fill: none; stroke: #2070b4; stroke-opacity: 0.6; stroke-width: 1.5; stroke-linecap: square"/>
   </g>
   <g id="line2d_29">
    <path d="M 512.473457 253.325 
L 512.05635 240.185247 
L 510.806708 227.098404 
L 508.729563 214.117165 
L 505.833279 201.293803 
L 502.129518 188.679952 
L 497.633194 176.326404 
L 492.362412 164.282902 
L 486.338396 152.597941 
L 479.585402 141.318573 
L 472.130623 130.490215 
L 464.004075 120.156469 
L 455.238483 110.358946 
L 445.86914 101.137096 
L 435.933776 92.528054 
L 425.472395 84.566484 
L 414.527123 77.284445 
L 403.142031 70.71126 
L 391.362964 64.873395 
L 379.237352 59.794359 
L 366.814021 55.494602 
L 354.142994 51.991438 
L 341.275293 49.298973 
L 328.262733 47.42805 
L 315.15771 46.3862 
L 302.012993 46.177621 
L 288.881512 46.80315 
L 275.816143 48.26027 
L 262.869495 50.543114 
L 250.093699 53.642488 
L 237.540199 57.545914 
L 225.259545 62.237672 
L 213.301185 67.698872 
L 201.713272 73.907523 
L 190.542466 80.838625 
L 179.833748 88.464269 
L 169.630238 96.753748 
L 159.973023 105.673685 
L 150.900988 115.188161 
L 142.450663 125.258866 
L 134.656075 135.845248 
L 127.54861 146.904679 
L 121.156888 158.392627 
L 115.506644 170.262835 
L 110.620631 182.467505 
L 106.518524 194.957492 
L 103.216839 207.682505 
L 100.728872 220.591305 
L 99.064641 233.631911 
L 98.230846 246.751814 
L 98.230846 259.898186 
L 99.064641 273.018089 
L 100.728872 286.058695 
L 103.216839 298.967495 
L 106.518524 311.692508 
L 110.620631 324.182495 
L 115.506644 336.387165 
L 121.156888 348.257373 
L 127.54861 359.745321 
L 134.656075 370.804752 
L 142.450663 381.391134 
L 150.900988 391.461839 
L 159.973023 400.976315 
L 169.630238 409.896252 
L 179.833748 418.185731 
L 190.542466 425.811375 
L 201.713272 432.742477 
L 213.301185 438.951128 
L 225.259545 444.412328 
L 237.540199 449.104086 
L 250.093699 453.007512 
L 262.869495 456.106886 
L 275.816143 458.38973 
L 288.881512 459.84685 
L 302.012993 460.472379 
L 315.15771 460.2638 
L 328.262733 459.22195 
L 341.275293 457.351027 
L 354.142994 454.658562 
L 366.814021 451.155398 
L 379.237352 446.855641 
L 391.362964 441.776605 
L 403.142031 435.93874 
L 414.527123 429.365555 
L 425.472395 422.083516 
L 435.933776 414.121946 
L 445.86914 405.512904 
L 455.238483 396.291054 
L 464.004075 386.493531 
L 472.130623 376.159785 
L 479.585402 365.331427 
L 486.338396 354.052059 
L 492.362412 342.367098 
L 497.633194 330.323596 
L 502.129518 317.970048 
L 505.833279 305.356197 
L 508.729563 292.532835 
L 510.806708 279.551596 
L 512.05635 266.464753 
L 512.473457 253.325 
" clip-path="url(#pe82d1a049f)" style="fill: none; stroke: #084a91; stroke-opacity: 0.8; stroke-width: 2; stroke-linecap: square"/>
   </g>
   <g id="line2d_30">
    <path d="M 512.473457 253.325 
L 201.713272 73.907523 
L 201.713272 432.742477 
L 512.473457 253.325 
" clip-path="url(#pe82d1a049f)" style="fill: none; stroke: #084a91; stroke-opacity: 0.6; stroke-width: 1.5; stroke-linecap: square"/>
   </g>
   <g id="patch_3">
    <path d="M 53.415 505.21 
L 53.415 1.44 
" style="fill: none; stroke: #000000; stroke-linejoin: miter; stroke-linecap: square"/>
   </g>
   <g id="patch_4">
    <path d="M 557.185 505.21 
L 557.185 1.44 
" style="fill: none; stroke: #000000; stroke-linejoin: miter; stroke-linecap: square"/>
   </g>
   <g id="patch_5">
    <path d="M 53.415 505.21 
L 557.185 505.21 
" style="fill: none; stroke: #000000; stroke-linejoin: miter; stroke-linecap: square"/>
   </g>
   <g id="patch_6">
    <path d="M 53.415 1.44 
L 557.185 1.44 
" style="fill: none; stroke: #000000; stroke-linejoin: miter; stroke-linecap: square"/>
   </g>
   <g id="text_13">
    <!-- $\sigma=0$ -->
    <g transform="translate(330.235343 225.894032) scale(0.12 -0.12)">
     <defs>
      <path id="DejaVuSans-Oblique-3c3" d="M 2219 3044 
Q 1744 3044 1422 2700 
Q 1081 2341 969 1747 
Q 844 1119 1044 756 
Q 1241 397 1706 397 
Q 2166 397 2503 759 
Q 2844 1122 2966 1747 
Q 3075 2319 2881 2700 
Q 2700 3044 2219 3044 
z
M 2309 3503 
L 4219 3500 
L 4106 2925 
L 3463 2925 
Q 3706 2438 3575 1747 
Q 3406 888 2884 400 
Q 2359 -91 1609 -91 
Q 856 -91 525 400 
Q 194 888 363 1747 
Q 528 2609 1050 3097 
Q 1484 3503 2309 3503 
z
" transform="scale(0.015625)"/>
      <path id="DejaVuSans-3d" d="M 678 2906 
L 4684 2906 
L 4684 2381 
L 678 2381 
L 678 2906 
z
M 678 1631 
L 4684 1631 
L 4684 1100 
L 678 1100 
L 678 1631 
z
" transform="scale(0.015625)"/>
     </defs>
     <use xlink:href="#DejaVuSans-Oblique-3c3" transform="translate(0 0.78125)"/>
     <use xlink:href="#DejaVuSans-3d" transform="translate(82.861328 0.78125)"/>
     <use xlink:href="#DejaVuSans-30" transform="translate(186.132812 0.78125)"/>
    </g>
   </g>
   <g id="text_14">
    <!-- $\sigma=1$ -->
    <g transform="translate(337.316084 207.412753) scale(0.12 -0.12)">
     <use xlink:href="#DejaVuSans-Oblique-3c3" transform="translate(0 0.09375)"/>
     <use xlink:href="#DejaVuSans-3d" transform="translate(82.861328 0.09375)"/>
     <use xlink:href="#DejaVuSans-31" transform="translate(186.132812 0.09375)"/>
    </g>
   </g>
   <g id="text_15">
    <!-- $\sigma=2$ -->
    <g transform="translate(344.570832 176.381102) scale(0.12 -0.12)">
     <use xlink:href="#DejaVuSans-Oblique-3c3" transform="translate(0 0.78125)"/>
     <use xlink:href="#DejaVuSans-3d" transform="translate(82.861328 0.78125)"/>
     <use xlink:href="#DejaVuSans-32" transform="translate(186.132812 0.78125)"/>
    </g>
   </g>
   <g id="text_16">
    <!-- $\sigma=3$ -->
    <g transform="translate(349.101961 125.166629) scale(0.12 -0.12)">
     <defs>
      <path id="DejaVuSans-33" d="M 2597 2516 
Q 3050 2419 3304 2112 
Q 3559 1806 3559 1356 
Q 3559 666 3084 287 
Q 2609 -91 1734 -91 
Q 1441 -91 1130 -33 
Q 819 25 488 141 
L 488 750 
Q 750 597 1062 519 
Q 1375 441 1716 441 
Q 2309 441 2620 675 
Q 2931 909 2931 1356 
Q 2931 1769 2642 2001 
Q 2353 2234 1838 2234 
L 1294 2234 
L 1294 2753 
L 1863 2753 
Q 2328 2753 2575 2939 
Q 2822 3125 2822 3475 
Q 2822 3834 2567 4026 
Q 2313 4219 1838 4219 
Q 1578 4219 1281 4162 
Q 984 4106 628 3988 
L 628 4550 
Q 988 4650 1302 4700 
Q 1616 4750 1894 4750 
Q 2613 4750 3031 4423 
Q 3450 4097 3450 3541 
Q 3450 3153 3228 2886 
Q 3006 2619 2597 2516 
z
" transform="scale(0.015625)"/>
     </defs>
     <use xlink:href="#DejaVuSans-Oblique-3c3" transform="translate(0 0.78125)"/>
     <use xlink:href="#DejaVuSans-3d" transform="translate(82.861328 0.78125)"/>
     <use xlink:href="#DejaVuSans-33" transform="translate(186.132812 0.78125)"/>
    </g>
   </g>
   <g id="text_17">
    <!-- $\sigma=4$ -->
    <g transform="translate(344.418557 42.254895) scale(0.12 -0.12)">
     <defs>
      <path id="DejaVuSans-34" d="M 2419 4116 
L 825 1625 
L 2419 1625 
L 2419 4116 
z
M 2253 4666 
L 3047 4666 
L 3047 1625 
L 3713 1625 
L 3713 1100 
L 3047 1100 
L 3047 0 
L 2419 0 
L 2419 1100 
L 313 1100 
L 313 1709 
L 2253 4666 
z
" transform="scale(0.015625)"/>
     </defs>
     <use xlink:href="#DejaVuSans-Oblique-3c3" transform="translate(0 0.09375)"/>
     <use xlink:href="#DejaVuSans-3d" transform="translate(82.861328 0.09375)"/>
     <use xlink:href="#DejaVuSans-34" transform="translate(186.132812 0.09375)"/>
    </g>
   </g>
  </g>
 </g>
 <defs>
  <clipPath id="pe82d1a049f">
   <rect x="53.415" y="1.44" width="503.77" height="503.77"/>
  </clipPath>
 </defs>
</svg>
